<?xml version="1.0" encoding="utf-8"?>
<svg viewBox="0 0 525 88" fill="none" xmlns="http://www.w3.org/2000/svg">
  <path d="M 136.603 50.323 L 145.852 53.256 Q 143.725 60.99 138.779 64.744 Q 133.832 68.499 126.226 68.499 Q 116.816 68.499 110.758 62.069 Q 104.699 55.64 104.699 44.49 Q 104.699 32.695 110.79 26.169 Q 116.881 19.643 126.806 19.643 Q 135.475 19.643 140.889 24.767 Q 144.112 27.797 145.723 33.468 L 136.281 35.724 Q 135.443 32.05 132.784 29.923 Q 130.126 27.797 126.323 27.797 Q 121.07 27.797 117.799 31.567 Q 114.528 35.338 114.528 43.781 Q 114.528 52.74 117.751 56.543 Q 120.973 60.345 126.13 60.345 Q 129.932 60.345 132.672 57.928 Q 135.411 55.511 136.603 50.323 Z" style="fill: rgb(51, 51, 51);" transform="matrix(1, 0, 0, 1, -3.552713678800501e-15, 0)"/>
  <path d="M 163.374 67.693 L 149.581 33.468 L 159.088 33.468 L 165.533 50.935 L 167.402 56.768 Q 168.144 54.545 168.337 53.836 Q 168.788 52.385 169.304 50.935 L 175.814 33.468 L 185.127 33.468 L 171.527 67.693 Z" style="fill: rgb(51, 51, 51);" transform="matrix(1, 0, 0, 1, -3.552713678800501e-15, 0)"/>
  <path d="M 188.316 52.321 L 197.597 51.419 Q 198.435 56.091 200.997 58.283 Q 203.559 60.474 207.91 60.474 Q 212.518 60.474 214.855 58.525 Q 217.191 56.575 217.191 53.964 Q 217.191 52.289 216.208 51.112 Q 215.225 49.936 212.776 49.066 Q 211.1 48.486 205.138 47.004 Q 197.468 45.102 194.375 42.331 Q 190.024 38.431 190.024 32.824 Q 190.024 29.214 192.07 26.072 Q 194.117 22.93 197.968 21.287 Q 201.819 19.643 207.265 19.643 Q 216.16 19.643 220.655 23.543 Q 225.151 27.442 225.377 33.952 L 215.838 34.371 Q 215.225 30.729 213.211 29.134 Q 211.197 27.539 207.169 27.539 Q 203.011 27.539 200.659 29.247 Q 199.144 30.342 199.144 32.179 Q 199.144 33.855 200.562 35.047 Q 202.367 36.562 209.328 38.206 Q 216.289 39.849 219.624 41.606 Q 222.96 43.362 224.845 46.407 Q 226.73 49.453 226.73 53.932 Q 226.73 57.993 224.474 61.538 Q 222.218 65.083 218.093 66.807 Q 213.968 68.531 207.813 68.531 Q 198.854 68.531 194.052 64.39 Q 189.251 60.249 188.316 52.321 Z" style="fill: rgb(51, 51, 51);" transform="matrix(1, 0, 0, 1, -3.552713678800501e-15, 0)"/>
  <path d="M 234.691 20.449 L 244.23 20.449 L 244.23 46.037 Q 244.23 52.128 244.584 53.932 Q 245.197 56.833 247.501 58.589 Q 249.805 60.345 253.801 60.345 Q 257.862 60.345 259.924 58.686 Q 261.987 57.026 262.406 54.609 Q 262.825 52.192 262.825 46.585 L 262.825 20.449 L 272.364 20.449 L 272.364 45.263 Q 272.364 53.771 271.59 57.284 Q 270.817 60.797 268.738 63.214 Q 266.66 65.631 263.179 67.065 Q 259.699 68.499 254.091 68.499 Q 247.324 68.499 243.827 66.936 Q 240.331 65.373 238.3 62.875 Q 236.27 60.378 235.625 57.638 Q 234.691 53.578 234.691 45.65 Z" style="fill: rgb(51, 51, 51);" transform="matrix(1, 0, 0, 1, -3.552713678800501e-15, 0)"/>
  <path d="M 340.904 67.693 L 330.527 67.693 L 326.402 56.962 L 307.517 56.962 L 303.618 67.693 L 293.499 67.693 L 311.9 20.449 L 321.987 20.449 Z M 323.34 49.002 L 316.831 31.47 L 310.45 49.002 Z" style="fill: rgb(51, 51, 51);" transform="matrix(1, 0, 0, 1, -3.552713678800501e-15, 0)"/>
  <path d="M 345.896 67.693 L 345.896 20.449 L 354.952 20.449 L 354.952 67.693 Z" style="fill: rgb(51, 51, 51);" transform="matrix(1, 0, 0, 1, -3.552713678800501e-15, 0)"/>
  <path d="M 386.758 67.693 L 386.758 62.569 Q 384.889 65.308 381.843 66.887 Q 378.798 68.466 375.414 68.466 Q 371.966 68.466 369.227 66.952 Q 366.488 65.437 365.263 62.698 Q 364.038 59.959 364.038 55.125 L 364.038 33.468 L 373.094 33.468 L 373.094 49.195 Q 373.094 56.414 373.593 58.041 Q 374.093 59.669 375.414 60.619 Q 376.736 61.57 378.766 61.57 Q 381.086 61.57 382.923 60.297 Q 384.76 59.024 385.437 57.139 Q 386.113 55.254 386.113 47.906 L 386.113 33.468 L 395.169 33.468 L 395.169 67.693 Z" style="fill: rgb(51, 51, 51);" transform="matrix(1, 0, 0, 1, -3.552713678800501e-15, 0)"/>
  <path d="M 403.87 33.468 L 412.217 33.468 L 412.217 38.141 Q 416.697 32.695 422.884 32.695 Q 426.171 32.695 428.588 34.048 Q 431.005 35.402 432.552 38.141 Q 434.808 35.402 437.418 34.048 Q 440.029 32.695 442.993 32.695 Q 446.764 32.695 449.374 34.226 Q 451.985 35.756 453.274 38.721 Q 454.208 40.913 454.208 45.811 L 454.208 67.693 L 445.153 67.693 L 445.153 48.131 Q 445.153 43.04 444.218 41.557 Q 442.961 39.624 440.351 39.624 Q 438.449 39.624 436.774 40.784 Q 435.098 41.944 434.357 44.184 Q 433.615 46.423 433.615 51.257 L 433.615 67.693 L 424.56 67.693 L 424.56 48.937 Q 424.56 43.942 424.076 42.492 Q 423.593 41.042 422.578 40.333 Q 421.563 39.624 419.822 39.624 Q 417.728 39.624 416.052 40.752 Q 414.376 41.88 413.651 44.006 Q 412.926 46.133 412.926 51.064 L 412.926 67.693 L 403.87 67.693 Z" style="fill: rgb(51, 51, 51);" transform="matrix(1, 0, 0, 1, -3.552713678800501e-15, 0)"/>
  <path d="M 494.356 67.693 L 485.3 67.693 L 485.3 50.226 Q 485.3 44.683 484.72 43.056 Q 484.14 41.428 482.835 40.526 Q 481.53 39.624 479.693 39.624 Q 477.34 39.624 475.471 40.913 Q 473.602 42.202 472.909 44.329 Q 472.216 46.456 472.216 52.192 L 472.216 67.693 L 463.161 67.693 L 463.161 33.468 L 471.572 33.468 L 471.572 38.496 Q 476.051 32.695 482.851 32.695 Q 485.848 32.695 488.33 33.775 Q 490.811 34.854 492.084 36.53 Q 493.357 38.206 493.857 40.333 Q 494.356 42.46 494.356 46.423 Z" style="fill: rgb(51, 51, 51);" transform="matrix(1, 0, 0, 1, -3.552713678800501e-15, 0)"/>
  <path d="M 503.541 28.828 L 503.541 20.449 L 512.596 20.449 L 512.596 28.828 Z M 503.541 67.693 L 503.541 33.468 L 512.596 33.468 L 512.596 67.693 Z" style="fill: rgb(51, 51, 51);" transform="matrix(1, 0, 0, 1, -3.552713678800501e-15, 0)"/>
  <path d="M 50.065 10.192 L 85.114 45.241 C 87.437 47.564 87.437 51.331 85.114 53.653 L 68.899 69.87 C 65.944 73.322 65.007 73.896 59.808 73.692 L 31.507 73.549 C 25.663 73.295 25.2 72.65 21.738 68.788 L 6.604 53.653 C 4.281 51.331 4.281 47.564 6.604 45.241 L 41.653 10.192 C 43.976 7.869 47.743 7.869 50.065 10.192 Z" style="fill: rgb(51, 51, 51);" transform="matrix(1, 0, 0, 1, -3.197442310920451e-14, -1.4210854715202004e-14)"/>
</svg>